<?xml version="1.0" standalone="no"?>
<!DOCTYPE svg PUBLIC "-//W3C//DTD SVG 20010904//EN"
 "http://www.w3.org/TR/2001/REC-SVG-20010904/DTD/svg10.dtd">
<svg version="1.0" xmlns="http://www.w3.org/2000/svg"
 width="500.000000pt" height="500.000000pt" viewBox="0 0 500.000000 500.000000"
 preserveAspectRatio="xMidYMid meet">

<g transform="translate(0.000000,500.000000) scale(0.100000,-0.100000)"
fill="#BFA181" stroke="none">
<path d="M2285 4814 c-244 -25 -564 -103 -730 -178 -80 -37 -244 -120 -275
-140 -19 -13 -56 -36 -82 -52 -184 -114 -477 -386 -594 -553 -79 -111 -124
-180 -124 -188 0 -3 -6 -14 -14 -22 -16 -18 -136 -253 -136 -267 0 -5 -7 -21
-14 -36 -22 -41 -74 -199 -103 -308 -71 -270 -88 -629 -45 -910 24 -152 43
-230 98 -396 160 -488 491 -913 944 -1210 115 -76 324 -177 480 -233 394 -142
887 -166 1295 -65 432 107 784 303 1090 609 357 355 578 792 657 1295 31 199
31 495 0 685 -31 195 -92 417 -148 540 -76 170 -177 355 -237 435 -10 14 -47
63 -81 110 -81 108 -326 349 -434 426 -161 114 -309 199 -487 280 -91 41 -379
128 -455 137 -25 3 -88 13 -140 22 -92 15 -383 27 -465 19z m575 -77 c133 -26
213 -48 340 -93 36 -12 75 -25 87 -29 31 -9 305 -145 323 -160 8 -7 33 -23 55
-35 85 -47 275 -200 386 -310 108 -108 248 -284 330 -417 93 -149 225 -447
249 -563 4 -19 17 -71 28 -115 79 -313 76 -757 -8 -1065 -29 -106 -68 -225
-97 -295 -36 -85 -139 -290 -182 -358 -121 -194 -348 -446 -522 -578 -165
-127 -253 -179 -509 -304 -82 -40 -342 -121 -437 -135 -32 -5 -98 -16 -148
-25 -241 -41 -560 -25 -830 42 -33 8 -83 21 -111 28 -54 13 -212 69 -254 90
-270 131 -358 185 -540 331 -140 112 -247 221 -365 376 -112 147 -147 202
-223 353 -96 192 -134 293 -186 500 -83 332 -83 729 1 1060 103 406 288 745
568 1043 74 78 210 196 295 255 178 123 401 247 525 290 189 67 253 85 425
117 150 28 164 29 410 26 227 -2 270 -5 390 -29z"/>
<path d="M3207 3264 c-4 -4 -7 -61 -7 -126 l0 -118 -35 -14 c-31 -13 -35 -19
-35 -51 l0 -35 35 14 35 15 0 -140 0 -139 50 0 50 0 0 158 0 158 35 13 c31 11
35 16 35 48 0 24 -4 34 -12 30 -61 -22 -57 -28 -60 85 l-3 103 -40 3 c-23 2
-44 0 -48 -4z"/>
<path d="M1215 3238 c-3 -7 -4 -137 -3 -288 l3 -275 53 -3 52 -3 0 99 0 99 81
7 c154 13 223 71 223 190 0 77 -24 121 -86 156 -39 23 -56 25 -180 28 -110 3
-139 1 -143 -10z m237 -79 c82 -22 92 -146 17 -185 -16 -8 -55 -14 -89 -14
l-60 0 0 98 c0 54 3 102 7 105 10 10 83 8 125 -4z"/>
<path d="M1778 3080 c-15 -4 -44 -18 -63 -30 -33 -21 -35 -24 -22 -44 19 -28
41 -31 82 -12 38 18 78 21 105 6 18 -10 38 -75 27 -86 -3 -3 -35 -9 -71 -15
-123 -17 -186 -70 -171 -146 8 -43 33 -69 82 -82 43 -12 103 0 143 29 24 17
25 17 35 -4 7 -14 22 -22 43 -24 l32 -3 0 159 c0 149 -1 161 -23 193 -39 59
-119 83 -199 59z m130 -271 c2 -29 -2 -39 -23 -53 -61 -40 -125 -28 -125 24 0
33 22 49 80 61 56 11 65 7 68 -32z"/>
<path d="M2847 3076 c-115 -43 -161 -183 -101 -304 35 -71 91 -104 173 -104
60 0 135 25 158 54 11 12 9 19 -10 36 l-23 22 -51 -21 c-84 -36 -154 -7 -169
69 l-6 31 133 3 134 3 3 39 c5 59 -23 123 -67 152 -47 31 -122 39 -174 20z
m136 -87 c9 -12 17 -32 17 -45 0 -24 -2 -24 -91 -24 l-91 0 7 27 c8 34 23 52
50 64 31 13 88 2 108 -22z"/>
<path d="M2060 3078 c0 -2 29 -93 64 -203 l63 -200 40 -3 c24 -2 44 2 50 10 5
7 28 70 49 140 21 70 41 128 44 128 4 0 26 -62 50 -137 l45 -138 39 -3 c21 -2
42 0 47 5 7 7 129 382 129 397 0 4 -21 6 -47 4 l-48 -3 -37 -139 c-21 -76 -39
-140 -41 -142 -2 -2 -19 47 -37 108 -51 176 -52 178 -99 178 l-40 0 -35 -112
c-19 -62 -38 -125 -42 -141 -10 -41 -21 -41 -29 1 -3 20 -15 66 -25 102 -10
36 -24 84 -30 108 l-11 42 -49 0 c-28 0 -50 -1 -50 -2z"/>
<path d="M3510 2010 l0 -300 45 0 44 0 3 93 c3 89 4 92 27 92 18 0 36 -19 85
-90 l61 -90 54 -3 c29 -2 51 1 50 5 -2 4 -37 57 -77 116 l-73 108 58 70 c96
116 94 109 35 109 -56 0 -58 -1 -127 -90 -68 -85 -94 -90 -93 -17 0 23 0 99
-1 170 l-1 127 -45 0 -45 0 0 -300z"/>
<path d="M2457 2282 c-23 -25 -21 -58 3 -82 24 -24 48 -25 78 -4 26 18 30 65
6 88 -21 22 -67 20 -87 -2z"/>
<path d="M1215 2278 c-3 -7 -4 -137 -3 -288 l3 -275 115 -3 c63 -2 139 2 168
8 90 20 142 80 142 166 0 39 -5 51 -34 80 -19 19 -41 34 -50 34 -24 0 -19 15
9 30 39 21 59 59 58 114 -1 58 -23 93 -79 121 -32 17 -63 21 -182 23 -112 3
-143 1 -147 -10z m254 -79 c35 -12 51 -35 51 -73 0 -62 -38 -86 -135 -86 l-65
0 0 78 c0 43 3 82 7 85 10 11 107 8 142 -4z m46 -264 c29 -28 31 -54 10 -95
-18 -35 -46 -44 -135 -45 l-65 0 -3 83 -3 82 86 0 c78 0 88 -2 110 -25z"/>
<path d="M1857 2100 c-41 -36 -45 -36 -49 -7 -2 18 -10 23 -46 25 l-42 3 2
-203 3 -203 48 -3 47 -3 0 126 c0 169 13 195 100 195 39 0 50 13 50 66 0 44
-66 46 -113 4z"/>
<path d="M2138 2120 c-72 -21 -138 -111 -138 -188 0 -94 57 -189 126 -212 76
-25 186 -7 226 37 16 17 16 20 0 41 l-17 22 -55 -21 c-91 -35 -156 -7 -176 74
l-6 27 130 0 c151 0 157 3 147 75 -17 112 -126 179 -237 145z m124 -88 c9 -9
20 -29 23 -44 l7 -28 -96 0 c-53 0 -96 3 -96 6 0 23 36 75 58 83 35 13 82 5
104 -17z"/>
<path d="M2804 2116 c-18 -8 -35 -19 -38 -25 -11 -17 -24 -13 -31 9 -5 16 -15
20 -46 20 l-39 0 0 -205 0 -205 50 0 50 0 0 153 0 153 29 17 c35 21 80 22 107
3 17 -13 19 -30 22 -170 l3 -156 51 0 50 0 -4 158 c-5 170 -14 206 -63 238
-34 22 -103 27 -141 10z"/>
<path d="M3188 2121 c-15 -5 -43 -19 -62 -31 -32 -19 -34 -23 -24 -46 13 -27
40 -31 78 -9 33 19 95 19 113 0 16 -15 33 -73 24 -81 -3 -3 -35 -9 -71 -15
-112 -15 -176 -60 -176 -122 0 -37 25 -83 52 -98 38 -20 113 -14 161 14 l43
25 9 -21 c7 -15 21 -23 43 -25 l32 -3 0 153 c0 168 -9 202 -62 241 -30 23
-116 32 -160 18z m130 -264 c8 -70 -116 -117 -148 -57 -20 37 17 71 90 83 44
8 55 3 58 -26z"/>
<path d="M2450 1891 c0 -243 0 -246 -50 -253 -20 -2 -26 -9 -28 -37 l-3 -34
61 5 c49 4 66 9 88 31 l27 27 3 245 3 245 -51 0 -50 0 0 -229z"/>
</g>
</svg>
